# xmcd CD database file
#
# Track frame offsets:
#	150
#	18407
#	39602
#	58264
#	74365
#	93170
#	110147
#	128497
#	147862
#	165402
#	185125
#
# Disc length: 2628 seconds
#
# Revision: 2
# Processed by: cddbd v1.5PL3 Copyright (c) Steve Scherf et al.
# Submitted via: CDex 1.51
#
DISCID=9a0a420b
DTITLE=FIREHOUSE - Good Acoustics
DYEAR=1996
DGENRE=Hard Rock
TTITLE0=You Are My Religion
TTITLE1=Love Don't Care
TTITLE2=In Your Perfect World
TTITLE3=No One At All
TTITLE4=Love Of A Lifetime
TTITLE5=All She Wrote
TTITLE6=When I Look Into Your Eyes
TTITLE7=Don't Treat Me Bad
TTITLE8=Here For You
TTITLE9=I Live My Life For Xou
TTITLE10=Seven Bridges Road
EXTD=YEAR: 1996
EXTT0=
EXTT1=
EXTT2=
EXTT3=
EXTT4=
EXTT5=
EXTT6=
EXTT7=
EXTT8=
EXTT9=
EXTT10=
PLAYORDER=
